<mxfile host="app.diagrams.net" modified="2024-04-08T18:12:40.702Z" agent="Mozilla/5.0 (Macintosh; Intel Mac OS X 10_15_7) AppleWebKit/605.1.15 (KHTML, like Gecko) Version/17.2.1 Safari/605.1.15" etag="T3Rc94hO0g-w399Ac-b7" version="24.2.2" type="github">
  <diagram name="Page-1" id="ZlsqcZFTLOjH8oQmTIJ3">
    <mxGraphModel dx="1570" dy="1033" grid="0" gridSize="10" guides="1" tooltips="1" connect="1" arrows="1" fold="1" page="0" pageScale="1" pageWidth="827" pageHeight="1169" math="0" shadow="0">
      <root>
        <mxCell id="0" />
        <mxCell id="1" parent="0" />
        <mxCell id="BAZ7M3TzQ_T2DPc_dyxU-13" style="edgeStyle=orthogonalEdgeStyle;rounded=0;orthogonalLoop=1;jettySize=auto;html=1;exitX=1;exitY=0.75;exitDx=0;exitDy=0;entryX=0;entryY=0.5;entryDx=0;entryDy=0;curved=1;" edge="1" parent="1" source="BAZ7M3TzQ_T2DPc_dyxU-5" target="BAZ7M3TzQ_T2DPc_dyxU-6">
          <mxGeometry relative="1" as="geometry" />
        </mxCell>
        <mxCell id="BAZ7M3TzQ_T2DPc_dyxU-5" value="User" style="swimlane;fontStyle=0;childLayout=stackLayout;horizontal=1;startSize=20;fillColor=#d5e8d4;horizontalStack=0;resizeParent=1;resizeParentMax=0;resizeLast=0;collapsible=0;marginBottom=0;swimlaneFillColor=#ffffff;strokeColor=#82b366;" vertex="1" parent="1">
          <mxGeometry x="40" y="482" width="100" height="50" as="geometry" />
        </mxCell>
        <mxCell id="BAZ7M3TzQ_T2DPc_dyxU-11" style="edgeStyle=orthogonalEdgeStyle;rounded=0;orthogonalLoop=1;jettySize=auto;html=1;exitX=1;exitY=0.5;exitDx=0;exitDy=0;entryX=0;entryY=0.75;entryDx=0;entryDy=0;curved=1;" edge="1" parent="1" source="BAZ7M3TzQ_T2DPc_dyxU-6" target="BAZ7M3TzQ_T2DPc_dyxU-7">
          <mxGeometry relative="1" as="geometry" />
        </mxCell>
        <mxCell id="BAZ7M3TzQ_T2DPc_dyxU-6" value="Send&lt;div&gt;request&lt;/div&gt;" style="shape=ellipse;html=1;dashed=0;whiteSpace=wrap;aspect=fixed;perimeter=ellipsePerimeter;fillColor=#d5e8d4;strokeColor=#82b366;" vertex="1" parent="1">
          <mxGeometry x="216" y="612" width="75" height="75" as="geometry" />
        </mxCell>
        <mxCell id="BAZ7M3TzQ_T2DPc_dyxU-12" style="edgeStyle=orthogonalEdgeStyle;rounded=0;orthogonalLoop=1;jettySize=auto;html=1;exitX=0;exitY=0.25;exitDx=0;exitDy=0;entryX=1;entryY=0.5;entryDx=0;entryDy=0;curved=1;" edge="1" parent="1" source="BAZ7M3TzQ_T2DPc_dyxU-7" target="BAZ7M3TzQ_T2DPc_dyxU-8">
          <mxGeometry relative="1" as="geometry" />
        </mxCell>
        <mxCell id="BAZ7M3TzQ_T2DPc_dyxU-62" style="edgeStyle=orthogonalEdgeStyle;rounded=0;orthogonalLoop=1;jettySize=auto;html=1;exitX=1;exitY=0.25;exitDx=0;exitDy=0;entryX=0;entryY=0.25;entryDx=0;entryDy=0;" edge="1" parent="1" source="BAZ7M3TzQ_T2DPc_dyxU-7" target="BAZ7M3TzQ_T2DPc_dyxU-57">
          <mxGeometry relative="1" as="geometry" />
        </mxCell>
        <mxCell id="BAZ7M3TzQ_T2DPc_dyxU-7" value="Website" style="swimlane;fontStyle=0;childLayout=stackLayout;horizontal=1;startSize=20;fillColor=#dae8fc;horizontalStack=0;resizeParent=1;resizeParentMax=0;resizeLast=0;collapsible=0;marginBottom=0;swimlaneFillColor=#ffffff;strokeColor=#6c8ebf;" vertex="1" parent="1">
          <mxGeometry x="360" y="482" width="100" height="50" as="geometry" />
        </mxCell>
        <mxCell id="BAZ7M3TzQ_T2DPc_dyxU-14" style="edgeStyle=orthogonalEdgeStyle;rounded=0;orthogonalLoop=1;jettySize=auto;html=1;exitX=0;exitY=0.5;exitDx=0;exitDy=0;entryX=1;entryY=0.25;entryDx=0;entryDy=0;curved=1;" edge="1" parent="1" source="BAZ7M3TzQ_T2DPc_dyxU-8" target="BAZ7M3TzQ_T2DPc_dyxU-5">
          <mxGeometry relative="1" as="geometry" />
        </mxCell>
        <mxCell id="BAZ7M3TzQ_T2DPc_dyxU-8" value="Display response" style="shape=ellipse;html=1;dashed=0;whiteSpace=wrap;aspect=fixed;perimeter=ellipsePerimeter;fillColor=#dae8fc;strokeColor=#6c8ebf;" vertex="1" parent="1">
          <mxGeometry x="216" y="489.5" width="75" height="75" as="geometry" />
        </mxCell>
        <mxCell id="BAZ7M3TzQ_T2DPc_dyxU-27" style="edgeStyle=orthogonalEdgeStyle;rounded=0;orthogonalLoop=1;jettySize=auto;html=1;exitX=1;exitY=0.5;exitDx=0;exitDy=0;entryX=0;entryY=0.5;entryDx=0;entryDy=0;dashed=1;endArrow=none;endFill=0;" edge="1" parent="1" source="BAZ7M3TzQ_T2DPc_dyxU-16" target="BAZ7M3TzQ_T2DPc_dyxU-24">
          <mxGeometry relative="1" as="geometry" />
        </mxCell>
        <mxCell id="BAZ7M3TzQ_T2DPc_dyxU-30" style="edgeStyle=orthogonalEdgeStyle;rounded=0;orthogonalLoop=1;jettySize=auto;html=1;exitX=0.5;exitY=1;exitDx=0;exitDy=0;curved=1;" edge="1" parent="1" source="BAZ7M3TzQ_T2DPc_dyxU-16" target="BAZ7M3TzQ_T2DPc_dyxU-19">
          <mxGeometry relative="1" as="geometry" />
        </mxCell>
        <mxCell id="BAZ7M3TzQ_T2DPc_dyxU-16" value="" style="html=1;dashed=0;whiteSpace=wrap;shape=mxgraph.dfd.dataStoreID;align=left;spacingLeft=3;points=[[0,0],[0.5,0],[1,0],[0,0.5],[1,0.5],[0,1],[0.5,1],[1,1]];fillColor=#e1d5e7;strokeColor=#9673a6;" vertex="1" parent="1">
          <mxGeometry x="525" y="287.5" width="95" height="30" as="geometry" />
        </mxCell>
        <mxCell id="BAZ7M3TzQ_T2DPc_dyxU-17" value="Raw documents" style="text;html=1;align=center;verticalAlign=middle;resizable=0;points=[];autosize=1;strokeColor=none;fillColor=none;" vertex="1" parent="1">
          <mxGeometry x="520" y="257.5" width="110" height="30" as="geometry" />
        </mxCell>
        <mxCell id="BAZ7M3TzQ_T2DPc_dyxU-19" value="Annotate&lt;div&gt;new docs&lt;/div&gt;" style="shape=ellipse;html=1;dashed=0;whiteSpace=wrap;aspect=fixed;perimeter=ellipsePerimeter;fillColor=#bac8d3;strokeColor=#23445d;" vertex="1" parent="1">
          <mxGeometry x="710" y="380" width="75" height="75" as="geometry" />
        </mxCell>
        <mxCell id="BAZ7M3TzQ_T2DPc_dyxU-49" style="edgeStyle=orthogonalEdgeStyle;rounded=0;orthogonalLoop=1;jettySize=auto;html=1;exitX=0.5;exitY=1;exitDx=0;exitDy=0;entryX=0.5;entryY=0;entryDx=0;entryDy=0;curved=1;" edge="1" parent="1" source="BAZ7M3TzQ_T2DPc_dyxU-24" target="BAZ7M3TzQ_T2DPc_dyxU-48">
          <mxGeometry relative="1" as="geometry" />
        </mxCell>
        <mxCell id="BAZ7M3TzQ_T2DPc_dyxU-24" value="" style="html=1;dashed=0;whiteSpace=wrap;shape=mxgraph.dfd.dataStoreID;align=left;spacingLeft=3;points=[[0,0],[0.5,0],[1,0],[0,0.5],[1,0.5],[0,1],[0.5,1],[1,1]];fillColor=#ffe6cc;strokeColor=#d79b00;" vertex="1" parent="1">
          <mxGeometry x="835" y="287.5" width="95" height="30" as="geometry" />
        </mxCell>
        <mxCell id="BAZ7M3TzQ_T2DPc_dyxU-28" value="Annotated docs" style="text;html=1;align=center;verticalAlign=middle;resizable=0;points=[];autosize=1;strokeColor=none;fillColor=none;" vertex="1" parent="1">
          <mxGeometry x="830" y="257.5" width="110" height="30" as="geometry" />
        </mxCell>
        <mxCell id="BAZ7M3TzQ_T2DPc_dyxU-32" style="edgeStyle=orthogonalEdgeStyle;rounded=0;orthogonalLoop=1;jettySize=auto;html=1;exitX=1;exitY=0.5;exitDx=0;exitDy=0;entryX=0;entryY=0.5;entryDx=0;entryDy=0;" edge="1" parent="1" source="BAZ7M3TzQ_T2DPc_dyxU-31" target="BAZ7M3TzQ_T2DPc_dyxU-16">
          <mxGeometry relative="1" as="geometry" />
        </mxCell>
        <mxCell id="BAZ7M3TzQ_T2DPc_dyxU-31" value="RSS feed/offline parser" style="shape=ellipse;html=1;dashed=0;whiteSpace=wrap;aspect=fixed;perimeter=ellipsePerimeter;fillColor=#fff2cc;strokeColor=#d6b656;" vertex="1" parent="1">
          <mxGeometry x="300" y="250" width="105" height="105" as="geometry" />
        </mxCell>
        <mxCell id="BAZ7M3TzQ_T2DPc_dyxU-37" style="edgeStyle=orthogonalEdgeStyle;rounded=0;orthogonalLoop=1;jettySize=auto;html=1;exitX=1;exitY=0.25;exitDx=0;exitDy=0;entryX=0;entryY=0.5;entryDx=0;entryDy=0;curved=1;" edge="1" parent="1" source="BAZ7M3TzQ_T2DPc_dyxU-34" target="BAZ7M3TzQ_T2DPc_dyxU-19">
          <mxGeometry relative="1" as="geometry" />
        </mxCell>
        <mxCell id="BAZ7M3TzQ_T2DPc_dyxU-34" value="" style="html=1;dashed=0;whiteSpace=wrap;shape=partialRectangle;right=0;fillColor=#b1ddf0;strokeColor=#10739e;" vertex="1" parent="1">
          <mxGeometry x="520" y="385" width="100" height="30" as="geometry" />
        </mxCell>
        <mxCell id="BAZ7M3TzQ_T2DPc_dyxU-35" value="Resources" style="text;html=1;align=center;verticalAlign=middle;resizable=0;points=[];autosize=1;strokeColor=none;fillColor=none;" vertex="1" parent="1">
          <mxGeometry x="530" y="355" width="80" height="30" as="geometry" />
        </mxCell>
        <mxCell id="BAZ7M3TzQ_T2DPc_dyxU-39" style="edgeStyle=orthogonalEdgeStyle;rounded=0;orthogonalLoop=1;jettySize=auto;html=1;exitX=1;exitY=0.5;exitDx=0;exitDy=0;entryX=0.22;entryY=1.017;entryDx=0;entryDy=0;entryPerimeter=0;curved=1;" edge="1" parent="1" source="BAZ7M3TzQ_T2DPc_dyxU-19" target="BAZ7M3TzQ_T2DPc_dyxU-24">
          <mxGeometry relative="1" as="geometry" />
        </mxCell>
        <mxCell id="BAZ7M3TzQ_T2DPc_dyxU-51" style="edgeStyle=orthogonalEdgeStyle;rounded=0;orthogonalLoop=1;jettySize=auto;html=1;exitX=0.5;exitY=1;exitDx=0;exitDy=0;entryX=1;entryY=0.5;entryDx=0;entryDy=0;curved=1;" edge="1" parent="1" source="BAZ7M3TzQ_T2DPc_dyxU-48" target="BAZ7M3TzQ_T2DPc_dyxU-50">
          <mxGeometry relative="1" as="geometry" />
        </mxCell>
        <mxCell id="BAZ7M3TzQ_T2DPc_dyxU-48" value="Clusterer" style="swimlane;fontStyle=0;childLayout=stackLayout;horizontal=1;startSize=20;fillColor=#fad9d5;horizontalStack=0;resizeParent=1;resizeParentMax=0;resizeLast=0;collapsible=0;marginBottom=0;swimlaneFillColor=#ffffff;strokeColor=#ae4132;" vertex="1" parent="1">
          <mxGeometry x="832.5" y="455" width="100" height="50" as="geometry" />
        </mxCell>
        <mxCell id="BAZ7M3TzQ_T2DPc_dyxU-61" style="edgeStyle=orthogonalEdgeStyle;rounded=0;orthogonalLoop=1;jettySize=auto;html=1;exitX=0;exitY=0.5;exitDx=0;exitDy=0;entryX=1;entryY=0.5;entryDx=0;entryDy=0;" edge="1" parent="1" source="BAZ7M3TzQ_T2DPc_dyxU-50" target="BAZ7M3TzQ_T2DPc_dyxU-60">
          <mxGeometry relative="1" as="geometry" />
        </mxCell>
        <mxCell id="BAZ7M3TzQ_T2DPc_dyxU-50" value="Summarize clusters" style="shape=ellipse;html=1;dashed=0;whiteSpace=wrap;aspect=fixed;perimeter=ellipsePerimeter;fillColor=#fad9d5;strokeColor=#ae4132;" vertex="1" parent="1">
          <mxGeometry x="680" y="564.5" width="75" height="75" as="geometry" />
        </mxCell>
        <mxCell id="BAZ7M3TzQ_T2DPc_dyxU-59" style="edgeStyle=orthogonalEdgeStyle;rounded=0;orthogonalLoop=1;jettySize=auto;html=1;exitX=1;exitY=0.5;exitDx=0;exitDy=0;entryX=0.5;entryY=1;entryDx=0;entryDy=0;curved=1;" edge="1" parent="1" source="BAZ7M3TzQ_T2DPc_dyxU-57" target="BAZ7M3TzQ_T2DPc_dyxU-19">
          <mxGeometry relative="1" as="geometry" />
        </mxCell>
        <mxCell id="BAZ7M3TzQ_T2DPc_dyxU-57" value="Annotator" style="swimlane;fontStyle=0;childLayout=stackLayout;horizontal=1;startSize=20;fillColor=#bac8d3;horizontalStack=0;resizeParent=1;resizeParentMax=0;resizeLast=0;collapsible=0;marginBottom=0;swimlaneFillColor=#ffffff;strokeColor=#23445d;" vertex="1" parent="1">
          <mxGeometry x="520" y="482" width="100" height="50" as="geometry" />
        </mxCell>
        <mxCell id="BAZ7M3TzQ_T2DPc_dyxU-63" style="edgeStyle=orthogonalEdgeStyle;rounded=0;orthogonalLoop=1;jettySize=auto;html=1;exitX=0;exitY=0.5;exitDx=0;exitDy=0;entryX=1;entryY=0.75;entryDx=0;entryDy=0;curved=1;" edge="1" parent="1" source="BAZ7M3TzQ_T2DPc_dyxU-60" target="BAZ7M3TzQ_T2DPc_dyxU-7">
          <mxGeometry relative="1" as="geometry" />
        </mxCell>
        <mxCell id="BAZ7M3TzQ_T2DPc_dyxU-60" value="Create response" style="shape=ellipse;html=1;dashed=0;whiteSpace=wrap;aspect=fixed;perimeter=ellipsePerimeter;fillColor=#fad9d5;strokeColor=#ae4132;" vertex="1" parent="1">
          <mxGeometry x="520" y="564.5" width="75" height="75" as="geometry" />
        </mxCell>
      </root>
    </mxGraphModel>
  </diagram>
</mxfile>
